<svg width="662" height="662" viewBox="0 0 662 662" fill="none" xmlns="http://www.w3.org/2000/svg">
<path d="M163.776 194.74C189.8 184.62 252.004 281.509 257.776 287.24C318.777 347.816 348.276 354.74 348.276 354.74C348.276 354.74 308.776 357.24 196.776 279.24C192.524 276.518 180.776 277.74 191.276 310.74C212.776 357.74 260.621 453.009 287.621 454.509C296.597 455.007 305.67 456 315.121 445.509C332.621 421.009 362.121 354.74 368.621 342.009C397.211 286.009 428 282.267 436.121 281.509C465 278.811 491.493 287.009 506.121 303.009C522.121 320.509 541.121 361.009 510.621 402.509C475.621 443.509 411.621 456.009 361.121 432.509C459.621 435.065 464.121 413.509 473.621 397.509C479.262 388.009 483.5 363.609 470.621 350.509C441.621 321.009 417.121 331.61 411.621 335.009C391.253 347.593 386.121 358.009 359.121 403.509C333.121 452.509 312.577 466.048 297.621 468.009C277.265 470.677 246.544 458.971 234.776 450.24C159.776 407.74 140.621 310.74 138.621 303.009C131.766 276.509 137.752 204.861 163.776 194.74Z" fill="#0043CF"/>
</svg>
