<svg width="640" height="640" viewBox="0 0 640 640" fill="none" xmlns="http://www.w3.org/2000/svg">
<path d="M68.7175 116.106C107.803 100.985 201.229 245.755 209.898 254.319C301.516 344.831 345.821 355.177 345.821 355.177C345.821 355.177 286.495 358.913 118.281 242.366C111.894 238.298 94.2501 240.124 110.02 289.433C142.311 359.66 214.17 502.009 254.722 504.25C268.204 504.996 281.831 506.479 296.025 490.803C322.308 454.195 366.615 355.177 376.377 336.154C419.318 252.479 465.56 246.888 477.757 245.755C521.131 241.724 560.92 253.973 582.891 277.88C606.922 304.028 635.458 364.543 589.65 426.552C537.083 487.814 440.96 506.492 365.113 471.378C513.052 475.198 519.811 442.988 534.079 419.081C542.551 404.887 548.916 368.43 529.573 348.854C486.017 304.775 449.221 320.617 440.96 325.694C410.369 344.498 402.661 360.061 362.109 428.047C323.059 501.262 292.203 521.492 269.741 524.422C239.168 528.41 193.028 510.918 175.354 497.873C62.7099 434.37 33.9404 289.433 30.9366 277.88C20.6412 238.284 29.6317 131.228 68.7175 116.106Z" fill="#0043CF"/>
</svg>
